<mxfile host="app.diagrams.net" modified="2023-06-29T06:48:02.004Z" agent="Mozilla/5.0 (Windows NT 10.0; Win64; x64) AppleWebKit/537.36 (KHTML, like Gecko) Chrome/114.0.0.0 Safari/537.36" version="21.5.2" etag="e6iqh1s5bvmfEjX6gi9k" type="github">
  <diagram name="페이지-1" id="k37hnNXpUCLwOBZ9T14T">
    <mxGraphModel>
      <root>
        <mxCell id="0" />
        <mxCell id="1" parent="0" />
      </root>
    </mxGraphModel>
  </diagram>
</mxfile>
